<svg width="32" height="32" viewBox="0 0 32 32" fill="none" xmlns="http://www.w3.org/2000/svg">
<path d="M6.66663 9.48388H25.0533C25.4259 9.48389 25.7943 9.55945 26.1348 9.70569C26.4754 9.85193 26.7804 10.0656 27.0304 10.3329C27.2804 10.6003 27.4697 10.9153 27.5862 11.2578C27.7027 11.6003 27.7437 11.9625 27.7066 12.3213L26.9066 20.0632C26.8408 20.7 26.5329 21.2904 26.0426 21.7198C25.5523 22.1493 24.9146 22.3871 24.2533 22.3871H11.52C10.9033 22.3873 10.3055 22.1807 9.82855 21.8024C9.35157 21.4241 9.02483 20.8975 8.90396 20.3123L6.66663 9.48388Z" stroke="#1D1D1D" stroke-width="2" stroke-linejoin="round"/>
<path d="M21.3333 27.5484H24M6.66663 9.48388L5.58663 5.29936C5.5144 5.02033 5.3479 4.77266 5.11357 4.59569C4.87924 4.41872 4.59053 4.32259 4.29329 4.32259H2.66663L6.66663 9.48388ZM10.6666 27.5484H13.3333H10.6666Z" stroke="#1D1D1D" stroke-width="2" stroke-linecap="round" stroke-linejoin="round"/>
</svg>
