<svg width="21" height="20" viewBox="0 0 21 20" fill="none" xmlns="http://www.w3.org/2000/svg">
<path d="M10.0046 1.50039C10.3045 0.72273 11.4395 0.72273 11.7404 1.50039L13.6805 6.78368C13.7481 6.95579 13.8673 7.10367 14.0223 7.2078C14.1772 7.31193 14.3607 7.36741 14.5483 7.36693H19.3161C20.1971 7.36693 20.5813 8.44496 19.8887 8.97292L16.4959 11.9739C16.3439 12.0888 16.2329 12.248 16.1787 12.4288C16.1244 12.6095 16.1299 12.8025 16.1941 12.9801L17.4332 18.1427C17.7349 18.9719 16.7583 19.6842 16.0198 19.1737L11.4114 16.299C11.2536 16.1899 11.0654 16.1314 10.8725 16.1314C10.6796 16.1314 10.4914 16.1899 10.3336 16.299L5.72522 19.1737C4.98761 19.6842 4.01008 18.971 4.31187 18.1427L5.55089 12.9801C5.61517 12.8025 5.62058 12.6095 5.56636 12.4288C5.51215 12.248 5.40108 12.0888 5.2491 11.9739L1.85631 8.97292C1.16276 8.44496 1.5489 7.36693 2.42803 7.36693H7.19574C7.38346 7.36754 7.56694 7.31211 7.72192 7.20796C7.87689 7.10381 7.99605 6.95586 8.06362 6.78368L10.0037 1.50039H10.0046Z" fill="#FFD057" stroke="#FFD057" stroke-width="1.24113" stroke-linecap="round" stroke-linejoin="round"/>
</svg>
